<mxfile host="app.diagrams.net" modified="2022-07-09T20:35:30.076Z" agent="5.0 (Windows NT 10.0; Win64; x64) AppleWebKit/537.36 (KHTML, like Gecko) Chrome/103.0.5060.114 Safari/537.36 Edg/103.0.1264.49" etag="asqT8ek3wCvimdj1Xmvp" version="17.4.6" type="github">
  <diagram name="Page-1" id="97916047-d0de-89f5-080d-49f4d83e522f">
    <mxGraphModel dx="2370" dy="1287" grid="1" gridSize="10" guides="1" tooltips="1" connect="1" arrows="1" fold="1" page="1" pageScale="1.5" pageWidth="1169" pageHeight="827" background="none" math="0" shadow="0">
      <root>
        <mxCell id="0" />
        <mxCell id="1" parent="0" />
        <mxCell id="2" value="Tim Cook&#xa;CEO" style="rounded=1;fillColor=#3B3B3B;strokeColor=none;shadow=1;gradientColor=none;fontStyle=1;fontColor=#FFFFFF;fontSize=16;fontFamily=Inter;fontSource=https%3A%2F%2Ffonts.googleapis.com%2Fcss%3Ffamily%3DInter;" parent="1" vertex="1">
          <mxGeometry x="820" y="205.5" width="200" height="60" as="geometry" />
        </mxCell>
        <mxCell id="29" value="" style="edgeStyle=elbowEdgeStyle;elbow=vertical;strokeWidth=4;endArrow=none;endFill=0;fontStyle=1;strokeColor=#AFABAB;entryX=0.5;entryY=0;entryDx=0;entryDy=0;fontSource=https%3A%2F%2Ffonts.googleapis.com%2Fcss%3Ffamily%3DInter;startArrow=none;startFill=0;" parent="1" source="2" target="S9xhGBCpftyQh5QA76QY-60" edge="1">
          <mxGeometry x="22" y="165.5" width="100" height="100" as="geometry">
            <mxPoint x="22" y="265.5" as="sourcePoint" />
            <mxPoint x="772" y="345.5" as="targetPoint" />
            <Array as="points">
              <mxPoint x="920" y="360" />
            </Array>
          </mxGeometry>
        </mxCell>
        <mxCell id="S9xhGBCpftyQh5QA76QY-55" value="" style="shape=image;verticalLabelPosition=bottom;labelBackgroundColor=default;verticalAlign=top;aspect=fixed;imageAspect=0;image=data:image/png,iVBORw0KGgoAAAANSUhEUgAAAnQAAAHnCAYAAAAxc8C/AAAAAXNSR0IArs4c6QAAAARnQU1BAACxjwv8YQUAAAAJcEhZcwAADsMAAA7DAcdvqGQAAFq5SURBVHhe7b1N7DVXfef5TGbc7Uk72IBhngQMpv0Y3Mbk+aexGbgG4gkv4yQ4AzOhG5KQac+EiwgQCNMQRYFBSauljKbjXAl1R6w80kzGiyysbK41i4ill15mcaVeteRNS5ay8bLm/M5bnVN1Tt2qe+tWnbr1+aIPfm69nDp1qk6dz7/qvtz6h3/4hwoAAAAAlgtCBwAAALBwEDoAAACAhYPQAQAAACycSOj+r//v76v/4U//DgAAAAAWwn/8T/8ZoQMAAABYMggdAAAAwMJB6AAAAAAWDkIHAAAAsHAQOgAAAICFg9ABAAAALByEDgAAAGDhIHQAAAAACwehAwAAAFg4CB0AAADAwkHoAAAAABYOQgcAAACwcBA6AAAAgIWD0AFciE9968XqiWd/v/rAM78LAEd4/NO/Vz3z9Z8k+xIAHAehAxgZEbmff/ix6j3vu1N945t/UP3oRz8CgCN87/t/VL3/sSeqd77rfdUnv/rjZN8CgDwIHcCI3PzqtrrzgQ9Wr732WkUIGZ6///u/rz5082T1oV/5neq5H76S7GcA0AahAxiJ9z3xseo73/1e9eabb9qhiRByav703/zb6qFHfxGpA+gJQgcwAnJnTmSOEDJefvzv/0P1z57+fLLPAUAMQgdwJvKeOXnMyp05QsbPUx/9ePX08y8k+x4A1CB0AGcij1pfeeUVO/wQQsaMvKdOPiiR6nsAUIPQAZzBr/3x31b/5OfeYoceQsglIn1M+lqqDwKAAaEDOIOPfeXPq08882k77BBCLhHpY9LXUn0QAAwIHcAZ/NLnv1996be+YocdQsglIt9RJ188nOqDAGBA6ADOQL7hXr4UlRByuUgfk76W6oMAYEDoAM5gDKE77DbVrVu3jrCpdod4+e3evB41h3213YT12VTb3b46qP/ttjv1/+cn3N+N26lz0qfO+209v6PhBret3naw3cZ6x49tfVxLzEXPtQFB6ACOg9ABnMFoQrdxsqQEwQ32bhQ97KpNUujGNYFaPtS2grIPSoY2Mt3X8fzst2YfzxW6IXV22+wndH3qZY+VbMMKY3J/1PFzxzScf9jHx7WM7KtdWMcLnWtDg9ABHAehAziDcYRuGwzqCaFTiZe5QPwdrIxgyPzShG5gnfsI3aBo0VblHW2X+pg29/fix3VgpI3OlexLBKEDOA5CB3AGYwhdnLTQXTZ9tjneI1fJ+UI3vM6jC50TyhOEbr/dqqllxd2NQ+gAlglCB3AGUwtd/YjRDrz+LpUsv1Mvg0eQarbcAdJ3kdTrbW6gdneaFP0Hc5GloC4t2eue3xQ6L1vBtM6cUOda6IJ22tRi1WpbMzXYD3mPnJ0etrumS9AaQqcfwbaXD9tAytsNqY9O3OZ63/TmGuVE54ypRbiMQZUdHr/dvtr59woKpv6+zl5qu+p3ehA6gOMgdABnMP0dOjVg2oHVDfK1CDQHcPso0g/gGekIBvhaHLri6mAfF8oHA2T9cFDvnF/X2W9P1WGjBCR8H1xnBte53qaTuFYdWm3rXoftGDzedXUYcIeuJn0s/LHTZR6q/U7Jpy+8qz7xPFeO27fmvvq28OdYc99T0+rX9amppqkXZo24Dq32OiMIHcBxEDqAMyhK6OzysRToBczrsYSuJTKNgf7YfJVQMPQHGI5KUSND66zSbKejUtN8j5x97bfn65BpV5/6mNbl5tfxbRPcPdTpqk9zXiNhe4evhwmdSvPY7ne1sHXV78wgdADHQegAzuAqhO7oNuO0ym/U6dh8ia+z/7qRY1LUzLA6S5rtdFRqAmmMcMufKnQyJXwP3UHuxQVxYtQst6s+TdFqxO1r7pxJHaPuaebOm9xB9Ns71l5nBKEDOA5CB3AG1yF0QRnZR2T7+nFoSx7qOukqHJuv4gVDTdi3BLBfBtVZpdlOzdettj3Wbj3a1aQtdGEiKdJRy9t6ROdA1/b8vHRb+Pa2M4/ue3aammqP10ZJafgVJ/3bY3gQOoDjIHQAZ3AtQheW695M7yLfl7aNprll7bSD/Z61lsDl5ifq7OqolnHrmMd39n14yQypc3ubx6UmFDH7PjHZF1ehvgLj9l+IjulBFaGOVThN3m+oXqs5fp36gwVd9Qnawn0AJahrvK/hsvW23TKy7/q9e8FyodD5Y9Pa7yPtdUYQOoDjIHQAZzCm0HkRi4jvuDSX2W6dVNjXaiA2g61ho157mRCO3AUzIhRuY6PvorXXkU891svJp1hDeeqa39oHZQVeODQiYsF+BNKRSq86e/kytNpNbSJVLy1YTn5UuW2Zc6SlLn1MY1piLsd8F5fvhSpXH514npcqiYiVm6fOgV3Q3r55VTuaNpdPp2baw0bXNZzg0lm/04PQARwHoQM4g/Hv0JEoSpyiu0NklUHoAI6D0AGcAUJ3wchduk3u/XFkTUHoAI6D0AGcAUJ3qciju673z5E1BaEDOA5CB3AGCB0hlw9CB3AchA7gDBA6Qi4fhA7gOAgdwBkgdIRcPggdwHEQOoAzQOgIuXwQOoDjIHQAZ4DQEXL5IHQAx0HoAM4AoSPk8kHoAI6D0AGcAUJHyOWD0AEcB6EDOAOE7rKR33jd+J+SMrR/Zsym+bNT7pepEtPdz1qlfr2KlBeEDuA4CB3AGSB0l0r4w/v178/K77aGvzdaR0mbW9b+zqr5ybD09Fro+ObiJQShAzgOQgdwBgjdZVL/UH37R+/rH40PfhbM/Zh/IH86uelkUUHoAI6D0AGcAUJ3idi7akLqmaiTNIX/4X57960lbrnpZFFB6ACOg9ABnAFCd4E4CQuFLUogfMGj1Bp7Vy8zvb7DF5Z/qHbbevqtjVrWbzqcJ4967YywfFWPvXptRLN9V5GcF4QO4DgIHcAZIHQXyFCh05PsOr3u0NXvzzPlu9fmEa4TvtQ8U179qLf5+Ne8RujGDkIHcByEDuAMELoL5Byha8pUcnpD6LreZ9ecZ1+7enmhS61LRgtCB3AchA7gDBC6S+SM99CdInRumZSU+fUb2HohdNMEoQM4DkIHcAYI3WVSP8psP75MzhtD6IJHqT65cm0QummC0AEcB6EDOAOE7lI5KJcy0iV3w5wshd9DF8nXOUIXvL61rR+tbvW8+m7hZmfr4efJPxG6KYLQARwHoQM4A4Tusmn/UsSm/UsRXtocVt4y0+s7fAbz9FSJm9+O2oaTN0nzlyacSTbK949/yehB6ACOg9ABnAFCR8jlg9ABHAehAzgDhI6QywehAzgOQgdwBggdIZcPQgdwHIQO4Ax+6fPfr770W1+xww4h5BL5xjf/oHri2d9P9kEAMCB0AGfwsa/8efWJZz5thx1CyCXy1Ec/Xj39/AvJPggABoQO4Ax+7Y//tnrgbe+o3nzzTTv0EELGzj/5ubfovpbqgwBgQOgAzuSRm1+uXn75ZTv0EELGzKuvvlq9+84vJvseANQgdABn8uz3/qZ613sfqd544w07BBFCxojc+f7g3Q9Xz3z9J8m+BwA1CB3ACDz1P/1R9cUv/Y4dhgghY+SP/vgH1c1nn0/2OQCIQegARuLxzee01HGnjpDzInfmvvPd71WPfGhTPffDV5L9DQBiEDqAEZE7dfL49aWXXkLsCBkYETl5P+qdD3ywuvnVbbKPAUAahA5gZOQ9dY9++DPVz973lur2LzxUffbZz+kvRoUy+NrXvlZ9+9vfTs6DefiNL3yxes/77lT3/KN/rD9k9KlvvZjsWwCQB6EDuCCf+cO/rj7y5T/T33IPZfD2h+9qUvNgHp78zR8gcQBngtABwKpwEpGaBwCwVBA6AFgVCB0AXCMIHQCsCoQOAK4RhA4AVgVCBwDXCEIHAKsCoQOAawShA4BVgdABwDWC0AHAqkDoAOAaQegAYFUgdABwjSB0ALAqEDoAuEYQOgBYFQgdAFwjCB0ArAqEDgCuEYQOAFYFQgcA1whCBwCrAqEDgGsEoQOAVYHQAcA1gtABwKpA6ADgGkHoFsTjn/lq9f5P/rYfkACg5p9+9H/UpOaFvP3hu5rUPDiPRz/+peqhm88m58F1IMf4iV/9/eQYBfOC0C2I+2/f4WIJkOH2Y0+rPvJIcl7Iw09+Tg9KqXlwHnJ9+tkHbifnwXUgx1jGotQYBfOC0C2IBx++Wz39/AvJeQBr55c+//3qPb/03yfnwTTI9UmuU6l5cB1wjMsFoVsQCB1AHoRufhjsrx+OcbkgdAsCoQPIg9DND4P99cMxLheEbkEgdAB5ELr5YbC/fjjG5YLQLQiEDiAPQjc/DPbXD8e4XBC6BYHQAeRB6OaHwf764RiXC0K3IBA6gDwI3fww2F8/HONyQegWBEIHkAehmx8G++uHY1wuCN2CQOgA8iB088Ngf/1wjMsFoVsQCB1AHoRufjgG1w/HuFwQugUhP7fyzNd/kpwHsHYYaOaHY3D9cIzLBaFbEPIbiZ/5w79OzgNYOww088MxuH44xuWC0C0IhA4gDwPN/HAMrh+OcbkgdAsCoQPIw0AzPxyD64djXC4I3YJA6ADy8Om7+WGwv344xuWC0C0IhA4gD0I3Pwz21w/HuFwQugWB0AHkQejmh8H++uEYlwtCtyAQOoA8CN38MNhfPxzjckHoFgRCB5AHoZsfBvvrh2NcLgjdgkDoAPIgdPPDYH/9cIzLBaFbEAgdQB6Ebn4Y7K8fjnG5XFzo5Oeqbt26BVAccm6mzllYJgjd/KxlsGdcWyeljxkXFzppBDJOXnvtNfsvMkbk3Eyds7BMELr5WYvQMa6tM6WPGQgdWW0QuusCoZsfhI5ccxA6TnxSaBC66wKhmx+EjlxzEDpOfFJoELrrAqGbH4SOXHMQOk58UmgQuusCoZsfhI5ccxA6TnxSaBC66wKhmx+EjlxzEDpOfFJoELrz+ORXf1x95Mt/Vn3gmd8tgoduPqu/qzE1bw5EbkQyn/vhK8n2Gxs5Hk/+5g+SdZmK2489Xd1/+5HkvCm5dNszrq0zCB0nPik0CN1w5IutP7D5fPWWtz5Yfejmyeqzz36u+tGPflQEf/Inf1L99m//dnLeHHzpt75SPfXRj1c/e99bqkc//BktGKk2PQc5Hu//b39Nb0OOx2984YvJukzFt7/9bU1q3pRcuu0Z19YZhG7AiX/Yb6uNWv7WrU213R3U612l/nNiDtVuo8ra7tW/zoktR9fLoIo0c3abYNpY25O0t2kw7TJe8nWO981OvLLIvqXOWWgjdzo+9Cu/Uz308J3qr/7qr6rXX3/dtiI5ljfffLN66aWXtGA8cvPL1bPf+5tkGw/h1/74b6t/9vTnq9u/8FD14osvVm+88YbdGglzibYX5NrRL1OPH4wdl4zsU+p8KIVyhO6wUzK3qXbuZFcyp1+ffA6O1UEkdSfZNCp02G1VnWXamNszcR1Dd4rD3tdhvE7SXedo+2dkv9uN1iZjRvYtdc5CjMjDP338qepP/82/1QMkOT0vv/xy9d47j1fPfP0nybbug9yVu/PER6of//v/YEslfTJG2zvk2tE/048fjB2XiexT6nwohXKEbr9Vy6q/IoITQJ/spRxNXT91Am/CE0yd1BesYLNTuNfNi8KlMkanlLuucZuVE9m31DkLNSJz73rfY9Wrr75qW42cG7m7effJzUliITL3+M1H+dWYE3NO24fItWNQJh4/GDsuE9mn1PlQCgU9ct1XW7WsPuk222p/iA9j83GsZL81y99Sy++29oS1Z1A9rz4h6jJkueBEcZ1N3yHcVVv7l0cc91dWcNcweCSc2p6Um9peal9SiTpF86+sjjony1fr62XcOmpyso2UROt1pU2bF4VEuV3HwNXfIPVs12HOSD1S5yzUvPexJ6uf/vSntsXIWBGxkLtFQx4BymPv977/LjJ3Zk5p+yZy7RiWaccPxo7LRLafOh9KoawPRRzsyWUPpD+J9eNYd3KGj2KdBIYnWWOeO+FsGeYvFDvPnW1qCXfCy3x9Mvl5ddxJ5v7K2e/C280d29MdyNYruy/txCe1lK06g749r+em65wpX8/XdTuo6vRpo7r8uqzzjkG6DvNF9i11zoLh5te/UX39G9+yrUXGjjwClPd1pdo+xeOf/BfVv/uLF+za5JwMbfsmcu0YminHD8aOy0T2KXU+lEJZQmcj759zYudPOH3ga/TJ0TjoR08Iv5474bZqqfD1kRPFnphmPfVXT7Rw1/bq5PelnVwZJuk6Z8t3dVd/Dfl+faTO4et8vfsfg3Qd5ovsQ+qchb/Tdy/e9d5HeLP9hfOJZz5dfewrf548BiHyiPCDdz/MexhHTN+2TyHXjsGZcPzIrW/C2HFqpO6p86EUinoPnfvLxcSedOrI50/O/idEXEZO6NzrXNxyqpztrrFsenvxPjXr0Z3uZdN1PraO/HUjbWTmd7VR/Dpfbv9jYNKsw3yR/Umds/B31Yc++9Xqf/vX37ctRS6VV155pXrfEx9LHoMQ+aoY+XQxGS992z6FXDuGZ7rxo3s5xo5TI/uROh9KocAPRdjDJ8/t1br6hPZ2bk8e/96DASeELcN0EDvPnxV9hU6KMSdn+5Fsenvha71r2X1p51gHS9Y5U76UZfbdrBe1g6ujPgbqtd6gdB4p324/W+/+xyBdh/ki+5Y6Z+Hvqnff+UU+CDFB5I7bA297h/7wSeo4OOR7//iqmHHTt+1TyLXjlEw1fjB2XCayT6nzoRR6C91jn3reHLAT6BV1QojM5d7w6d9wGUx3J42wlTdN2n/LSbAL5rmDX5etpgVvMvUno5DuAUHMdpqLhXXx2/N1jk/A1L7EcR2uXaZPR51T5cs0eQOsni63rdW0dJ3tBUct497YWneqYcdAljB/UZnX+0Qd5ozUK3Wurx153PrWt7/DthK5dOTLmeUXN1LHQpBfgJAvDSbj51jb55Brx2m59PjB2HHJSH1S50Mp9Ba6U3+jTxqAkBJTeuecC3m/1vsfe8K2Erl0vvHNP6ieePb3k8dCEOEQ8SDj51jb52BcW2cQOk58UmgQujTyRnF5wziZJvJTVfL7o6ljIdz93Heq5//XrV2ajJljbZ+DcW2dQeg48UmhQejSSF+X38KcNfq7r+wjF4V8P5V8ZcFut68f1dhHM3HsIye9/LG4N1nbxzjHV7hIjkmFzJNlZsmVHweEjgyJHPfU+VAKCB1ZbUrvnHMxu9C597qGg7v7clT9nh/7fpszRcK852dj35sj/7UzJk6xQreC44DQkSFB6DjxSaFB6NLMK3TuzdHu025h1LyjItE/XiTOKWSElCl06zgOCB0ZEoSOE58UGoQuzaxC5z6B1ykJtUgM+8m/8JN7Zj3DfJ+akxQpdCs5DggdGRI57qnzoRQQOrLalN4552JOofMDfB+REAFQCxl5cHd4GneN7Hdgac/Q/67vBMXrzZcShW4txwGhI0NS+piB0JHVpvTOOReLETq7TJdIxHeADPYmEkLXkbUcB4SODIkc99T5UAoIHVltSu+cczGn0Jm7N/kB/nDQ6jBYJJw8hEHoOrKS44DQkSEpfcxA6MhqU3rnnItZhU4lvDtUf7ryoN+nZYSgv0h4MXFisXc/OzSvSIQpUuhU1nAcEDoyJKWPGQgdWW1K75xzMbfQSWTA38rXXogECJttQwAMvX7yL/lzRuEjQD4Ukcu1HweEjgyJHPfU+VAKCB1ZbUrvnHNRgtCtKSUL3bUHoSNDgtBx4pNCg9ClQeimDUI3XxA6MiQIHSc+KTQIXRqEbtogdPMFoSNDgtBx4pNCg9ClQeimDUI3XxA6MiSrF7oHHnhANwJAadxz733Jc3btIHTTBqGbL6cKnVw7UtcUuG7EZ1LnQylcXOgAYFkgdNMGoZsvpwrdmhEPkGtEah7MC0IHABEI3bRB6OYLQjcchK5cEDoAiEDopg1CN18QuuEgdOWC0AFAxLRCd6h24RfXejbVZrs3vzIwOLbMk9efNlMIXesLgoMv95038x4rhG44CF25IHQAEDGt0JnEv/V5qPbBz04NH+gRujD+1xh8ewTtaxp88ux37rgidEsDoSsXhA4AIuYXOkl95879dNS15qJC539kv/mzWnX7Tu10h/32RFEfPwjdcBC6ckHoACCiDKGrp9U/6N7+LVA1MXiUaH7g3f/GqJeGg5pmywqQbdXLbvWPzsu/5VHvlLmo0Ik86f1rC5Tfd7W/dTtsqo0TaTXdrZNse1e2tLt7pKvbrtHeqm1di/pjatdz23L16z4e+eN4ahC64SB05YLQAUBEkUJn7zQZX5B/G3nTy2gZMIO9cQ37Q/FWEqKybTn1XT/3o/KhDLpypsklhS5qQzvNJRS6uh2UfMmCVtZ0O2XaXr2I7qLqbclCfnm1UFiOTnxssq8Tx6P7OJ4WhG44CF25IHQAEFGi0Pn3fAWEA7u+C+TH9lgSUiJgJEYSL3ttQueEqhamOk7ojBQ1xCpoJ38cAkzzOaFLt5d8EMPfZfMLZAQu8/qY0NXH8bQgdMNB6MoFoQOAiFKELhSO1Pw67lHcxs5vSoKaH0jJZuumS/ICMVUuKnRu/7LvoXP72mizhNC1296VkS5bS9ypd+iSx6PrOJ4WhG44CF25IHQAEFGC0Ok3zocDvb8TZ17ruz/qH7KekYVAIlqSoOapwb/lIzpdAjFNLit0Kq4tRc70hFqMWqLV8ci12fauzVtCZ9eVR66hlNuZnQLXfN0UuvxxPC0I3XAQunJB6AAgYlqhc1LQpP09dIdd+435Mk3ekG+Ew4iFkwhBi4QTmgB3dydcdrt3UqPwgnH5XFzoVFrfQ7eRu5nhHjqRUtPtctGHIhJtH7VrePvOC6A6Hv7Y1O3pP9igpu0ax6rzeHQcx1OD0A0HoSuXYoXu5uam1XkB4DTuv30n2c9STCt0UyQljdPehevKFEJ3PM07ZSVm/OOI0A0HoSuXYoVOOishZJxIf0r1sxTXJnT6cW54B0nkZYPQxSlf6C5xHBG64SB05YLQEbKCrFnoqui76kRamo8b500JQhc+6oylqaBc4DgidMNB6MoFoSNkBZH+lOpnKa5O6ApPCUK31iB0w0HoygWhI2QFQejKDUI3XxC64SB05YLQEbKCIHTlBqGbLwjdcBC6ckHoCFlBELpyg9DNF4RuOAhduSB0hKwgCF25QejmC0I3HISuXBA6QlaQkoWu9aW34ZfX+siXzrovpLW/ZtCaZr+nLPhC3CWkBKFb6zFA6IaD0JULQrfa5L6hX6EuzON+R1d8kfdfkVD0l5heV6S9U/0sxZRC537yqxYAJQjBNBez3Mb+KoT8NzUNoTslaz4GCN1wELpyQehWHidX7rotf6mbn/hRf22bSZ3Z7/pIWfMiX/6XmF5b5Bin+lmKyYTO/URU9ofjg/PSiUNwwqSmLTGzCt3KjwFCNxyErlwQupXHXJDri3Z9IT9+kda/rXiSlCF0U6dIoXO/zZk4D/xdXPkjwJ6jBiMeqWnJO79qG0ZY4t/9lHPXTE/9Nqk699UfNvoRZN0xLpZZhW7lxwChGw5CVy4I3crTFDp3h05+mNsldeGNL+Yif8F7aQR5P41eMnWRR+imjrR/qp+lmEro/Dl0RCbq1/EfGe1pjfPK3n2qf6DfLmun66L1v10Z9V0pWUfX74Iy4TKn0K39GCB0w0HoyqW30D3x7Deq/+JnfsZ08Ikgl08sZkLj/XPZC2/6wq1/isf+la0v4jpNgUPopo4cj1S/TlHSHTp3Dp0iE+7cbvpA+5x3y/S/Oz1m5hS6tR8DhG44CF25cIdu5akvuPVfxuFfxPkLb1rK5A7fzt6pQ+jKiRyPVD9LMZnQufPAPq6r0x7Uz5GJ+jw0yUlGvd1mfS6bWYVu5ccAoRsOQlcuCN3KE19Y3cW9vtDmL7zxhdtdiPWFmzt0xUWOR6qfpZhO6FTcHSJ1grnzyH3CMpSAU2RCnbz6rnH4Wn/VRmO6/iPELLBCoVNZ8TFA6IaD0JULQrfymAtyIGzu4u4u0tkLb+PCbdeTO32uTISunMjxSPWzFJMKnYqcU9F3oG02+jxycX9UGMxAn5rmzjvBnXuHXfCGfH8+htNTb8hXtP+CuVhmFzqVtR4DhG44CF25IHSrjftLuKa+ANcXapmWvPCq1F8oqsTMi5+6sKvBwfzbCFvzIp+66JPLRto61c9STC10a08JQrfWIHTDQejKBaEjZAVB6MoNQjdfELrhIHTlgtARsoIgdOUGoZsvCN1wELpyQegIWUGGCN2Tv/mD6je+8EW7Jrl0jknF45/+vep73/8juzQZMwjdcBC6ckHoCFlBhgjd08+/UD310Y/bNcmlc0wquGN6uSB0w0HoygWhI2QFGSJ0n/nDv65u/8JDdk1y6YisdQ2QCPblcqztoQ1CVy4IHSEryBChe+6Hr1T3v+0d1RtvvGHXJpfMh26erD751R8nj4Xw7Pf+pnrr299hlyZj5ljbQxuErlwQOkJWkCFCJzz64c9UL730kl2bXCqvv/569Za3Ppg8BiHvvvOL1auvvmrXImOkb9tDDEJXLggdISvIUKH7yJf/rPrss5+za5NL5d/9xQvV45/8F8ljEHLz69+ovv6Nb9m1yBjp2/YQg9CVS7FCd8+99+lBCADOR/pTqp918fMPP1a99tprdvgjY+fNN9+s3vnz79aPVFPtHyKPwR/8b96l7yqR8zOk7SEGoSuXYoUOAOZF3oy/+eSn9OBHxs/269+s/vlz30y2fYqP/ssfVs99/jft2uScDG17qEHoygWhA4AsT33hu9VX/tXv2WGQjJX/+//5f6sPPPWZZJt38eFf/1r1B9/517YUckpObXswIHTlgtABQCf//Nn/Rd8Z4k7dOPk//s+/qB750EY/Rk219zGe+MQXkOwTc27bA0JXMggdABxFHvc99PCd6uWXX7ZDIxkaeT+ifJ/cE8/8y2QbD0HunL7/sSc4Hj0zZtuvHYSuXBA6AOiFfOHwIze/XL3nfXf0T1H99Kc/5a7dkchXjfzlX/6llgn5kIm8LzHVtqfwzNd/oo+HiN0Pfvi/czwauWTbrxmErlyKFbqbm5vkp/UAYDj3376T7Gen8Klvvah/X/S9jz1Z3fOP/nFye2CQ74977ONfvKhMiNg9/iv/M8ejwRRtv0YQunIpVuikQxJCxon0p1Q/AwAYAkJXLggdISsIQgcAY4DQlQtCR8gKgtABwBggdOWC0BGygiB0ADAGCF25IHSErCAIHQCMwcNPPVfd/dx3kvNgXhA6QlYQhA4AxuADz/yuJjUP5gWhI2QFGSp0fG0QwHiM+bVBc4PQlQtCR8gKIv0p1c9y0P8IGS9D+1/JIHTlcuVCd6h2m8ZfS5udmrq8HPbbaqP3YVNtdwf1elep//TIodpvN3bft9V+iTvfkcPO7ptiu7cTGzm97YbEnmuqEiU2sbRPqp/lkOUJIeNkaP8rGYSuXFZxh84N+psBo/h+N734Zbd52Ckh2VQ7KywiJPp1jwqafZd14zLm2L9LxR3fpNCd0XbDgtARQtIZ2v9KBqErF4QuEbmjM/WdvM5tyjwlIaGwHHbbYUIXLDvH/l0ynUJ3RttdU4YOKGP2P0LWnqH9r2QQunJZpdDtt+YRnTyC3NnHkRs74rtlDUaEmo/sdLQo2GX2u2pr7850lS1JlZXaZpx9tbXzN/qxabxAXaZsqxa1uFy1XmtaiJrv90mh6myWlfoEj20FqYPZRLYdJMl2i5Iv92g7KinTZct8u0/B7CB92+7Ysd36ckyb1HWU7db1DUTZl904LqltHlQ9ZTt2erK5zoiUm+pnOWR5Qsg4Gdr/SgahK5feQvfYf/ev7GAzHWPFSUx9h84N8uHA7AZRO88NzPqRnZUF9/jOzPDvz5Ny9Tb0Qh1lZ8tqbDMVtXw94AeCYMs0+2bLCcwm3jdJev/c61BSZJ5+VGmX2cob8Kzs1G2ZaQe/jiwS7muQznKPt6NZtt5+sNtx1PJdbdeuY26fmm23V+2j/6WSblddR71vcd2b29Tb0OsayTX1GC+yL6l+nUOWJ4SMk6H9r2QQunJZ6SPXePDtEjq3bogRBzfoNwfffNn5shoy0BF5D5iTEy8bvhxXp+adrrCO7W3Vy+z1e+tEOERgDurfrhyJ/jCBu1vmC0y3Q35f20mXe7wdXXnN17nk2i4kbsd4nyRxPcL2SZ83zTplt2lFT9+lbGxzjMh2Uv0shyxPCBknQ/tfySB05YLQyatIevoNzGpOS55M+otInXidVuQRXWQWdtuqoLjM04ROytdlqELkkaQuQ4nFdu9KMdN0HbJ36OJ2yO9rmK5y+7dj57Z6t12Y9D7p+HoqCY3KTZ838baP1FWtaR5Bb4602/DINlP9LIcsTwgZJ0P7X8kgdOWC0MmrDqFTK9s7J3aglrtJZkZm0O8oO1tWY5vNaImQQd7OtY/+9P7YMs2+2XICG+gldI1pLemwEiPbN+WFbZlph+y+BuksN65TtB92PbOf9bpJCerRdu06dgidq1fUppJGuzbKlte6CpltSpubfTfbrtthnEj7pPpZDll+WXHHrCZsTzOteczOTXub/nhfNE78ZXvqHL3IBhP7plHnqepop23Slnny+suNtF2qny0RhK5crlzo0hfcnRUAQe5CmQHazJMLTX2xtIOuewO+iIEbEZxUCIFJOLkQUmUny1JpbjOK2pYISe5DBkM+FCFpb8u0k5cILR3B4OclRJWhBMT8266baQdJbl99Oso93o71gOY+FHFS2w04ti56241thfV17ViXHQtaapsyzXy1jJou7aGnjhepQ6qf5ZDll5jWHyM2zbcPjBm3zSESfs7XBpntqf6pzxf5r51xgcTtqUTSvk72taNB6K4BhK5cVnGHjpC1Z+iAstT+twShkz8uThMiEy90E1hRuz3rP5KHCOzaI+2V6mdLBKErF4SOkBVk6ICy1P53VOjkkbu/a19LUfIOrr9Ta+6G6fWaBas0hc7frZW7x/Zu+FhfixSv7+7kBo9gheYdXl++1KMWydxd6zCp9vR1cHfLU+Uk2rluF1eHRr0tsq2uNlxipP6pfrZEELpyQegIWUGGDihL7X8pAZE4odPztVAYmdD+YR/963WitxvEd6P0ugmpcNus71i5twiEIuPKtPOc1Jyw7bg8FV+G3lhcFztPv9bz7HrZ7cZJtaebpvchU45eptnOjX2Pyg7rqdPVhsvK66+/btrrinj7w3eT1w2YF4SOkBVE+lOqn+VYav9LCYhE3rOmJ1lx0HexrBx4QQkw6zup6hYJt35LRqy4dAndKdvOyY3+gI27m2Vn5tojv904qfX9umof/HvqAvSyiXbO7Xu0vN9QVxsuL7KfqX62RLhDVy4IHSEryNABZan9Lycw8YcQ3KO+jV4ut44sZ6Sq+0Mqbv1zhG7ItttyY5at78K1ha6um0l+u3FSy5ntmzK7y4nbubnver5dX5cXPA5uLovQlQNCVy4IHSEryNABZbH9z9/pqeVAv8crEBzz70CC/N0kK1lyp0svfnmhO2XbLbmxEpf8+p9G+fJa3zHLbjdOU9ikLeX1sfon27m57zJPHad02yJ0pYLQlQtCR8gKMnRAWXL/q9+kbyRgE3yvR+7rYU75+honK34ZQQnIJb8WyQmWwdbfS5V67ffNSVNYfiidme36JPbNLtv8HrpUOTKt2c5ONgVdj3Af3XQr4uGyqTZcWqTuqX62RBC6ckHoCFlBhg4o9D9y+aSkcbl34boytP+VDEJXLsUK3T333tfo6ABwKtKfUv0sh6xDyCWj7zZGdz731XaD0JUOQlcuxQodAMwHQkcunui76hRK5vxP9F1ZEDqYAoQOAFogdISMF4QOpgChA4AWCB0h4wWhgylA6ACgBUJHyHhB6GAKEDoAaIHQETJeEDqYAoQOAFogdISMF4QOpqBYobu5udGdAADO5/7bd5L9LAdfGwQwHkO/NqhkELpyKVbopBMQQsaJ9KdUPwMAGAJCVy4IHSErCEIHAGOA0JULQkfICoLQAcAYIHTlgtARsoIgdAAwBghduSB0hKwgCB0AjAFCVy4IHSErCEIHAGOA0JULQkfICjJU6PjaIIDxGPq1QSWD0JULQkfICiL9KdXPctD/CBkvQ/tfySB05YLQjZjDflttVL1v3dpU291Bvd5V6j89cqj2243e51ubbbXvtc4UOVS7TfyXZsim3851xJa/3at/TZU5tjl/5Hil+lkOWZ4QMk6G9r+SQejKBaEbK4edkrlNtdvbl0rm9Ose1nDYiczJunEZ+92uCOkw9YsFTssrQreYIHSEzBeEDqYAoRsrSnD0nTkrY5LDbjtM6IJlRZhubcoVOrKsIHSEzBeEDqYAoRst+2qr6qzFRz82jeWnfhyr5m9rUXOyZFDrtaaFqPlaHO1rucvkZTB4bCtIHcwmrGzKdHMXcGvvUEmaj4lTiYTuoPYztFaV/bbe5s7WYeOXadTLIrPr9Ux7dJeTr2tyemafh20zX/elReqd6mc5ZHlCyDgZ2v9KBqErF4RuzBysOKi6C17c9ONYK0RO/AIrMFIR3qGzy7g7dHb9poToItQ8/YjWLrOVN+BZmanvqNXvhZNpWtBkZb+OLGIf9/o61GkJZstonMya9cP9cevW2wjr1djPjnKydc3uQ2afB2yzu+7LiuxHqp/lkOUJIeNkaP8rGYSuXBC6C0TeP+fEzsuE+rcWAy8a9R20o0InU/wye/3eOpELEZSD+rcrR6I/iOHuNPkC3TbDbYijmOVCTB3juOV0eYk7dM36HpOiWggzctVRTogUk9+H9D6fss103ZcV2Y9UP8shyxNCxsnQ/lcyCF25IHRjRR77ReZghUIJQCQGXjSGCZ2Ur8tQhcjjXF3GZqvKdKWYaboO2Tt0wWNYlbhe+bjl4v1TEbnUk/JSJNveB9IVPm5u72dPuQqS34f0Pg/ZZnfdlxWpf6qf5ZDlVxX5Q2UTHmv50Iw6h9wnlBYTe97r+o+VS5S5rgztfyWD0JVLb6F79ONf8he7qVhUtETJhyLsJU8GCLUP5q5W+LjOCkRgIL2ErjGtJTJO+NT2TXlue5KM3Li7Tq5MubtXb9AnKXRq/3b+fXpx3ZpStFMilB4Wm/vZUU6urtl9yOzzkG1KGdm6Lyty/FL9Oocsv5rIH2P6HFDnijkp5ETyErOsjCdf9afsxytzrRna/0oGoSsX7tCNFTUoiEwdf+O+/PXvLpRqenAHKL5rZ6d78TAXVS9VWmQCCfRio8pQUhNKjtTNb6MxQMkncVP1NXFSlCGSIIPcMdSC5OaH27a4/Q/Xk/3qLEdqk6lrcnpmnwdts6PuS4vUPdXPcsjy64g75uEfVC5q3uKEbpzoc99dP8jZGdr/SgahKxeEjlw4KSlMDZ4lZsl1jyN1T/WzHLL8KuKk/Yi85P4g838QqPXDT0nXy9fny6nL1n9YmPn1vPYns6P19BSVZN3lj5ngj0l/t13Nif7I3FQb1weCMo+3R+JT4/qxtp2/0H50amSfU/1siSB05YLQkYtGDw7RXQ65qC/jYr7kujczdEBZS//z8hIKUDP27re5O27v6Pnzwr6Wu+tqthOa9KfNT1jW1sss6849V04oeI15bn/Cuutt2OXs9D7b7izTzWu1R7tuuq11GUYm/eZWEGnfVD9bIghduSB05LKJ/ipXKCHSg8gSsuS6NyL1T/WzHLL8GtJH6NwyxlncXVt3RyuWnUiuhkjaKULXY15c93bSn4qPy+guc0B7hG8LcZtaSaS9Uv1siSB05YLQEbKCDB1QVtP/nGR4IYpzOBz72qEOgSlI6OpyXcx+6OkD79Cd3B467lGv/HFkJ60g0l6pfrZEELpyQegIWUGGDihr6n9OUERC/J0j+WogJR5aOvo8YkwJzGhC56RpuNC5uoev9T7a7ckdZ7N+f6E7tT2knc06gUyuJNK+qX62RBC6ckHoCFlBhg4oa+t/8ugxfry+tYJkcvRDADJ9p8qw/5bH8255JzRDlpXUoqm27eqmRGkXlNP8ZHY4zwlT/SnwQKK86G3bn4pXCT9lnyyzR3s067aX37b223J39NYR1ybXwn0PPpS8bsC8IHSErCDSn1L9LAf9j5DxMrT/lQx36MoFoSNkBUHoCJkvCB1MAUJHyAqC0BEyXxA6mAKEjpAVBKEjZL4gdDAFCB0hKwhCR8h8QehgChA6QlYQhI6Q+YLQwRQUK3T33Huf7gQAcD7Sn1L9LIesQwgZJ9KfUv1siSB05VKs0AHAfCB0hIwXhA6mAKEDgBYIHSHjBaGDKUDoAKAFQkfIeEHoYAoQOgBogdARMl4QOpgChA4AWiB0hIwXhA6moFihu7m50Z0AAM7n/tt3kv0sh6xDCBkn0p9S/WyJIHTlUqzQMaAQMl6GDih8bRDAeAz92qCSQejKBaEjZAWR/pTqZwAAQ0DoygWhI2QFQegAYAwQunJB6AhZQRA6ABgDhK5cEDpCVhCEDgDGAKErF4SOkBUEoQOAMUDoygWhI2QFGSp0fG0QwHgM/dqgkkHoygWhI2QFkf6U6mc56H+EjJeh/a9kELpyQejOyWFfbTcbXVdhs91XB/W/3W5f7bf2r7PNTk1pRi2zUfP08sdyUGXZbWy21d6vYMuw226y2cmCQ7Yzdvpvu7utTA77nWpru5xmU231PoZJtVVz2pxtMl9k/1P9LIcsTwgZJ0P7X8kgdOWC0J2a/bbaeEmw05TgOVlQC1RbPf88oTvsREY21U4JzUb/186wMfOdwJlo+VmQ0HW3Vb2PdVlK0oJpLqm2ak9D6PpQfP8jZEEZ2v9KBqErl95Cd/e571bvfPSp6unnX8jyya/+OLnuKZQ9oFgBEUFoWYGapyWjW1L6xgtJppCU0C0vHW11EBGTtlbibCeZWDFT85zTpdrqWPutJUMHlLL7HyHLytD+VzIIXbn0FrpHPvbF6t773lY9+PDdLG999+P6xB2LYrPfmjp2ylotKTv7yE8eyeo5iUeMB3fHT8mHe5ToZM3QFBqTWOiU5GzrMpvbqV9vW3WSdf2jSbuMm9O9noqvu0xvbsvVJ1++WjovdB1t7beh6pJqq9S0dr1UEvWXpI6Jr49IonsMHLZFoZE6p/p1DlmeEDJOhva/kkHoyoVHrifEi0JKQHyspIhIqIWMSLg7RQ2BsXehtBfof9d3lOL12omlJShTpylKrk6mvKhsXwc9Q5dV3/U7vp5eVq/n6prbR7dcovxEe3a1tZczK1SptmpPS9erVX9fX/dvV0Z9Z1DW0fVD6AghHRna/0oGoSsXhO6EDBI6u0wsFvG8lpQpnCOkJCWMW9fIUXyHrrmd7jqZyPvv/F04PyO/ntt+22ma2zbpU34Ud0csMc/Uoy4ntT/tafG2cvXPHxMndPljUmKk/ql+lkOWJ4SMk6H9r2QQunJB6E6JvXuTG9QPB5nYJU/9pEKSkpQwsdA10xSlrjoZUdHlHLmDFq6X335z2/3Lj2PnZd9DV7dNqq3a0+Jt5eqfPyZuu836lB3Zl1Q/yyHLE0LGydD+VzIIXbkgdCfGDfgiBvWnXNVgv91YCchLUHOeKswIopMMuYtly0xJSpjRhM5KljwSNdPzwhWt16i7vDbt0dj2gPJbcXfpVMOa+fWnXMP9TrVVe1pjW7n6Z48JQncdcccxIHf+JeL7vyL1h9h4sfX0534+rl+19yOxr5qNfi9s332O079eBKGDaUDozoj+epDwQikfGrBXN39xVWz3ViL0MvLIsZ7nhOSwG/qhiOMDUlgH2U5XnQ5eYNR21H6FMtO5nppf173en+a2a0HqLj8UtDDtthZxrpdNtVVqWmpbqfpLUsdEFeDXX8J751ykvql+lkOWX0O6/yDqjlv3nNNgv4v7bDtDxKn7D6O4vvUfRbnlu4PQDYm0c6qfLRGErlwQOkJWkKEDylr635xCJ5+iPk2mchkidJL6j8JT9p/0j7Rxqp8tEYSuXBA6QlaQoQPKWvpfU+j8HdzMV/T4u7YyPxCkej0lU/4urntbghItf3fZTHPb9dNUuf7f7m60Kjgq19RATQvWlTveerpkqNAF9bDrJL+qJ1H/o/WyxG2T+dqjFSRsk2vgZx+4nbxuwLwgdISsINKfUv0sx1r6X1PovBRF4mL+rRbWsmOWre9uGTeJZSpcT29DTzfSYzbVlK/4bpleRxfcWM7WYejX/0iOCp0vW89Q/+5f/6jsqJ0kdtlUm64k0japfrZEuENXLggdISvI0AFlLf3PiUhOilpipuY5IYpf59dzgqPvprnNtOTLCV1TdJrLmQz++h+VZv0lbpqs499TFxAKWlf9o7Ld8n5DHW2zkkjbpPrZEkHoygWhI2QFGTqgrKX/ORG5qNDpuEeS6U/By3wjdOEjVEl6OV3fEe7QmXqaMlLz6xyvfyiE4S+uNJdF6JYNQlcuCB0hK8jQAWUt/W+I0DmBMneeRHBkXkro4rttsg1TfiBjCSHqJXS2Dqd8/U9T2Px7/dzy/k6cee2+qqd3/ZXExXV3iZdF6JYNQlcuCB0hK8jQAeX6+58TqAAlHOFXCqW/osfehQo+FJGat3Flq3n7nVrWf1VPLWz+QwSyvpMrIbhF5qRN0CIVPv70ZYaiFCzrk9hXTft76NJfn9Suf2tbYf3d9ObvOitSbbqGyP6m+tkSQejKpVihu+fe+/xFAADOQ/pTqp/lkHUI6Z+UNK7rLlxXpD1S/WyJIHTlUqzQAcB8IHRkSPTdyeDOYiWPWTcInQtCB1OA0AFAC4SODEr0XXWKxi+5rD0IHUwBQgcALRA6QsYLQgdTgNABQAuEjpDxgtDBFCB0ANACoSNkvCB0MAUIHQC0QOgIGS8IHUwBQgcALRA6QsYLQgdTgNABQAuEjpDxgtDBFCB0ANACoSNkvCB0MAUIHQC0QOgIGS8IHUxBsUJ3/+07uhMAwPlIf0r1sxwPPPBAshwAGM7Qn94rmcc//XvVo5/4cnIezEuxQiedgBAyTqQ/pfoZAMAQeFpXLggdISsIQgcAY4DQlQtCR8gKgtABwBggdOWC0BGygiB0ADAGCF25IHSErCAIHQCMAUJXLggdISsIQgcAY4DQlQtCR8gKgtABwBggdOWC0BGygiB0ADAGCF25IHQn5VDtNo0vj9zsqt22Me3WttrbNU7NYbfx5W3PLeysJPY5YLM72OVOjS1f7eS5JfXPHNucJ3KMUv0MAGAICF25IHRnxMlWJDP7rZGcEe3LbWdeoTNJ7fNB7TNCV3bkmKX6GQDAEBC6ckHozghCR5YSOWapfgYAMASErlx6C93d575bvfPRp6qnn39hEmQAKj39hO6gJpnlNJvgMaxb9tam2u131dbeLZIcdttqY5ffeaHbV1tXjjzO9eub9Ux9VFmHE7ep5ultqnnbjLBF+3xQ9WlY5t49dpZ62zpscm1hkdn1ejt9t6y7nHxdk9Mz+zxsm/m6LyFS11S/BgAYAkJXLr2F7oOf/Vp171serB58+O4kyABUepzcJHEj/WGnBWO7V8pgxaIWwPp9aTJNlyfr2XXMcvUyukg7rykhbt4uWOaUbdbbEDE0a4Rp7bNeIYyTTrO+qZ/5t1s33I+6XnY9u19d5WTrmt2HzD4P2GZ33cuP1D3Vr3Pc3NzodQDgfO6/fSfZz5YIQlcuPHI9I26QjwZ2dzdIj/x1Dnv50ERzeScaTjxMInlIvK5FY1/td0YuZHsH9e9wq6dsM6SxCzrRPifu0DUl6ZgU1e2UkauOckKkmPw+pPf5lG2m615+pO6pfpZDlieEjJOh/a9kELpyQejOSCQ3Li2hMzKhl8neLYs/DRvJQ+K1K0dkan+wZWy2av5428wluc8SkUs9KS9Fsu29XV+XsXUiJTlRroLk9yG9z0O22V338iN1TvWzHLI8IWScDO1/JYPQlQtCd0aSctMUOidfynaMIByXq7iMer1aVGLxaInMKdt0d51cmXJ3L9gtl+Q+K5nb+ffpdUvRTolQtF2fAXKVq2t2H8YRunzdy48cs1Q/yyHLE0LGydD+VzIIXbkgdCfFCUKAkoDk99B5yVD/VoIRCocTL03jtpITJ/0Gff9vJx5m+16q9DaceLjXZt1h2+z6UERin0MiCTJEH+KQ+eG2Le5OV7ie7FdnOVKbTF2T0zP7PGibHXVfQqS+qX6WQ5YnhIyTof2vZBC6ckHoyIRJSWEgokVnyXVH6AiZM0P7X8kgdOWC0BGygiB0hMwXhA6mAKEjZAVB6AiZLwgdTAFCR8gKgtARMl8QOpgChI6QFWRaoev+AE30CemTYsvfXvNv8ObaMPWBpXb8B3zch6EKbDP/wS9F4/NZOs1ffcl98r5f+u9/u+3Oj5SX6mdLBKErF4SOkBVk6IAyRv9LfcWNHqQROh35UvBj9Y++kkh/PZCRjZQAxWl+JU+ZbRbtXxj3yX07XWQu9+s1/TJk/5ttd35kH1P9bIkgdOVSrNDdc+99uhMAwPlIf0r1sxyyzrlJCR0x0V+D00MYmsLTv03Hl5JLJCt0+muCNtF0+UqiaU4lhK4LhK5cihU6AJgPGYDOTSQfiZ+Jqx9tqYHa/USdXsYOqBpzV8YtK7Nbj8T8dwTKHZ1dtbV3YiT1Yzspux6g89uOyw/nhY8AQ7FoPhqUdJXv2sXQfdcpEp7EHbrc/qkaRFLSajNJa93udo8j39sY7Id856Wd07XvEv9dkTI/J3RBXTZS9iFupPx+qyTmtfc/X3+/7bCtzoxsI9XPlgguUC4IHQC0kAHo3MTiomiN2m7QDuXBCo4IoMxzg6rIjPltOZXmgGsfp6lpIo96u7It+wXb5m6WXcfXoWPbfp6IhJsn0qFf+O3o2G3oYqMv+O5Rfg9haLXhRu5axdvu3D+/jcbrcF29T7Zurt39r6qodjeVjuP3260ftInbVmrfozrXx611akjUslrOdVlqHSduXfud26/M/nfWv8fx6RspP9XPlgguUC4IHQC0kAHo3DgZ0QNl4g5dc+CMpSd+fdiFP7vWHHCdGNTrSqK7W36ZWlTy2+6Y1xj8W8KlMNvrX35X4n2IM2T/mq/7livvXUss4qM/qODuwvnGz+97c7td9XCRbTixk2107Xe+vHSb96n/GJHyU/1sieAC5YLQAUALGYDOjRtc64HSRsmducmUH/h1vDypQTcqozngNmXGpGvg7952x7yM0B0TiFKFrnVsdNyyXZ+oNdvT6x+5w3WS0Kky47rZ/VMLdu13fr+a7dG//mNEyk/1syWCC5QLQgcALWQAOjfJwVUenfr3K+UHfhM7P5omSQ/OTaFTFcg/muvcdse85uBvt+GW1Xd8jpXRmCdl6nq2rEaKzwiPZMD+tV436i2v3ZNcidlus92D2HaQR5Zm38Lj3LHvdj1Tz3rd1v7p5cLHy6ZMvY2u/c7uV2P/B9R/jEj5qX62RHCBckHoAKCFDECnxwlWhmigN2z3dhAN5ku0WDQG1nA9PQg7SRAaZnD0QxGK5rZ3Ufm7YN7GlxXKjn+TvwiInXhs3/wb8uW1r38opO02rIWjTp/9k/VabaZS1ztRtohRo92jeHFSdVYSa/7t9q3eVmrfnaSGH4pw83zUfols1fsX3y3s+lBEar9a+9+z/q12OTFSVqqfLRFcoFwQOgBoIQMQmTAiGK3bVHNGPoRi/0nODkIHU4DQAUALhG7CyN2mxl2muaLvTm12+kuP8bnxgtDBFCB0ANACoVtnku97JGcHoYMpKFbobm5udCcAgPO5//adZD/LIesQQs7Piy++2OqPS+Zn/sv/qnrXE88krxswL8UKnZw4hJBxIv0p1c9y0P8IGS9D+1/JcIeuXBA6QlYQhI6Q+YLQwRQgdISsIAgdIfMFoYMpQOgIWUEQOkLmC0IHU4DQEbKCIHSXTuLLlJtfltuKXWe7zyx3bH5XzlmXjJ2h/a9kELpyQegIWUGGDij0v9My7Gs/0tIl3wFnXg+XsnPWJZcLQgdTgNARsoIgdNPk3O9x0z8DdvTOXjrnrEsuG4QOpgChI2QFQeimSVPo/O+Cyu+W2t9vdT/xVc8zEuZ/41SzqTZyhy2Yr5ZQ6wTLyO+Q6unH1g1+T9X+Bq3btq1K+jdT5QfxXTl2PXJapA1T/WyJIHTlgtCdHftoQ1/0FHIBlb+U3Ws3TRZ10/0FeliaA0CY8ILuLtLHk38sM7y8RDvYOS7xoBP+EHn/dLVB/6zvcZS0Waqf5ZDlyfC4c7y+Q+dkKhQpJ0d2nj+Xj7y2PygvP1rvriWt7WTXbb/eSTn6365c929TP70venkjkn5TZHCG9r+SQejKBaEbJfZiGf4Vay+Szb9s6/e4nJLmRTuOG0zGEDrJ8PLqddp/0attjSJj3W3QlTW/v0jaPdXPcsjyZHiyQmfP17OEzuaw39V3+zLbSa0bbvsQ/FZr3WdrarmTMtQfX2EFyOBIm6b62RJB6Mqlt9Ddfe671Tsffap6+vkXWnzqWy8m1zkH6QBLir8oBvbj7iaFF92d//cpSV/gXU4RsK6cUt5ht60f94QrqsFhu7WPdTL175fuNshl7e8vkuOR6mc5ZHkyPJcVOvOHiC576B06iV9HCWFwHeru5+4x72a068oaI+2b6mdLBKErl95C98jHvljde9/bqgcfvtvivgffo0/YsVlU/B059yhR7kiZC6W/qMpf1vV1VEuGWUddZLftC6++8Kt19PtY9NW0fZHWAqWnbdVF2l2Y7XIaVR9fnkKVYy7gqffo5Mqz83x9g/fZNKL/8vfbC9/jI3/lu7/43fby7wnq1wbBftoyU3V0A5Yrr7nfTrz1Prs7H370atTR4mcvJFLnVL/OIcuT4bmo0Nk+IY9cU38sdpclsdP89m0a/VLfAVT/kH0x5QciSU7K0P5XMghdufDIdbTYx3iq3nqwVxfJnRcrcwGNHrfai6i5SNrlAolwZcl8PUi0ZEYWC8tobz+8SLsBoK6b+u8J5dX/bgwKNuZRjttvu7yUJRts1KkuU72yg1U9aPRpA7njqTdgkq1jYz9zr91xCgZdN0CHbVDXcTmRfUj1sxyyPBmS+nz1qPPLv81AEf2h1Zjnzin/x0Nqvu8/8kea+7c7h4+sa6PP52AdF/+HnDrv6z+E1B84fjvBH1tkcOQ4pPrZEkHoygWhGzFu8Dd3wcx7VOq/pGP5iETBDwbuouleN6UpFpG4jPbrWkyUYqn66AtzULch5bl/h7jlwriy/fKykPzFbya2BiFJ+j1Bx9pga+7aBWXl6xjv57HXx4TOiOWyIvuQ6mc5ZHlCyDgZ2v9KBqErF4RuzLgBX8mACJxO9OjQTJJEouDlpSl0zb+K+wuYjntEoybsD7ZMEaG9X6B3ea2yM/GyGLTF1j1ObgmdqZOWuOwdunwbuEe7qfrG6Ra45utQ6KQee1uurl/4aHxBkbqn+lkOWZ4QMk6G9r+SQejKBaEbNU5CQqmwstAUEys3RmDsMn6lfkLnZVGvV7+vprVtu3xbeAaU15Ax9z6bZuq7f1KcWd9LWlPovJCl3hPUrw3MPoksq1fZOjb288jrptDtlMTFdVhepG1T/SyHLE8IGSdD+1/JIHTlgtARsoIgdITMF4QOpgChI2QFQegImS8IHUwBQkfICoLQETJfEDqYAoSOkBUEoSNkviB0MAUIHSErCEJHyHxB6GAKihW6e+69T3cCADgf6U+pfpaD/gcwHkP7X8kgdOVSrNABAABAWeAC5YLQAQAAQC9wgXJB6AAAAKAXuEC5IHQAAADQC1ygXBA6AAAA6AUuUC4IHQAAAPQCFyiXYoXu5uYm+fFvABjO/bfvJPtZDvofwHgM7X8lg9CVS7FCJ52AEDJOpD+l+lkO+h8h42Vo/ysZhK5cEDpCVhCEjpD5gtDBFCB0hKwgCB0h8wWhgylA6AhZQRA6QuYLQgdTgNARsoIgdITMF4QOpgChI2QFQegImS8IHUwBQkfICoLQETJfEDqYAoSOkBUEoSNkviB0MAUIXUk57Kvtpv4yys12V+0Ph2qn/nuwi8yZ/dbWbdNRH70Pm2Af9mpZtQ+7vV1gvvSq/5VG9jvVz3LI8pePOi+C8z11XA67+ly6dWtbnXIWjXPcbV31+TxyCu4zw3KJNrpgu08YOa6pfrZEELpyQehKyX5bbeygs3dXLnWh1xezYgREDTy2jsn6+H1QA29zH9QFef4cqf8VZ+iAMmX/q6VtU+2iA6MG81Fk7PTjvt+5dS4kFsX3mSEZr40u3u4TZ2j/KxmErlwQuiJiB5zWgCaRv95LEZCugfHIPiB0s2bogDJl/zvslNTIoC3HJjxPDjt13tR/6Jx+zE477gclW5c9V5bQZ6bP5dt9+iB0MAWDhO6djz5VPf38C5OwKqGTC5i+sB9/pCQXOz3AqUFga0eB+pHSttptzd0OeWzjklqn3qYaTPZq4PR3BA5qVvCYS+4cmDVUOgZGV96RC3FdF/NI2S0bPRYL66YW6Nw//bjKzg8GxuQ+d9X/yiPtk+rXOWT5qXLY7aq9P+b1+Sait1dSFwtdx/kZnjfROR0ed/tv/zp9rsSPeje1cNp1uvtco46WoEuauPoeOR/79JmwDuH+1N39tGVlvv63nd+139F6eopKsu75Y3is3fUyR9uj/3Viqsh2U/1siSB05dJb6D7ypT+t7nv7u6sHH747CdIB1hJ/EQsvhKnYwU1fo/S/3YXJDVLhRdfOy65jH2WoeRs1QddBFvLL64L8fJO8EPXaB1u2Kc+W5S64jbKjfejYP71dvY4ZJPTy2X3O1//aI8cm1a9zyPJTRQudP8ZOfNT5Ke8hs8fSH7PO8zNzTkfHfR+/N633uZJ5nTsnozLDOtYZrc+IBPs65NrmhGVtvfr2xeZ6Ud31Nuxyvs3d9Py2O8t081rt0a5b8joxYWQfr4n/+v53Jq8bMC+9hW5q5KRZTexFrb6IqbhpHvVXpxsAAsy1LL7otS5kyXXc4Je+uB32wV/yfoHmxbZOn8EpGuj89t1f5/l96JxnL/D6r3y74fw+5+t/7ZE2SPWzHLL8VDFCFxw3OVhy/pmJ9vjGxyx9fubOaXfct+YuTVBW/3Ol+3Wqz+lyXP1NoVH8thv7FiYqSy3Vu88MkbQhyw6YF9e9nX7XmK4yB7RH4joxZaTOqX62RLhDVy4IXRGxFyJ/YXTpe4HMX8jy6zQvhi5mur7AHv3rOYi7YLb2weRwsHdMfF0GXIw750ncI5yNLrtvO60p0h6pfpZDlp8qTujCc2jrHqW1hK7r/Myd0/Vxd4923bnR/1zpfh2fk+p8tOXq+gWPBaNcss8UJHR1uS5DrjHpMge3h058nZgyUudUP1siCF25IHSlxF7Y4r8gGxe3xuCm/8LVMzouZNl1MoOfH/Dk4ifzuy62cdzFVub7fdBfu2IvoLYupjxblr+yhmW7uh0fRGSbprxgkOjZTmuKHJdUP8shy08VL3QqrXOucSy7z8/MOd047uY8VeePnKS9z5Xu11GfU1Pkq4biOqQzXp9p1GGIpHUu278vNue1jp16rfdx0DUmXebQ9kheJyaM7GOqny0RhK5cELqSot+4ay/wGnVR38Uf19efCPTzzBx3URS2e3tRE+yFLbWOu6hq/AVRxV+E1aCoBrfwghxuJ3dBlAGxfvOxrLu1F3uT3BuaJfXgppZxZaht+6+uUDT3b6/2Td4A7+vsy+pup6kv6HNH9jnVz3LI8pePkwWDPg31eVkPwm6eQf7YyZ+fuXO6edzj/pI+VyT+jfuNc7BdRqPPhfWwZO/SqZzaZ+L9UmXYf99S1xC3vGvLIctKTumLzTYy5QR1rws301LHUKWr3SV92qPvdWKqSD1S/WyJIHTlgtARsoIMHVDof+ckFlVDLUtkfRna/0oGoSsXhI6QFWTogEL/Oz367lZ411seBW4QujUHoYMpQOgIWUEQugkTfeeZQsmc/ooOstoM7X8lg9CVC0JHyAoydECh/xEyXhA6mAKEjpAVBKEjZL4gdDAFCB0hKwhCR8h8QehgCooVunvuvU93AgA4H+lPqX6WQ9YhhIwT6U+pfrZEELpyKVboAGA+EDpCxgtCB1OA0AFAC4SOkPGC0MEUIHQA0AKhI2S8IHQwBQgdALRA6AgZLwgdTAFCBwAtEDpCxgtCB1OA0AFAC4SOkPGC0MEUFCl099++ozsAAIyD9KlUX8vB1wYBjMfQrw0qGYSuXIoUOukAhJDxIn0q1dcAAIaA0JULQkfICoLQAcAYIHTlgtARsoIgdAAwBghduSB0hKwgCB0AjAFCVy4IHSErCEIHAGOA0JULQkfICoLQAcAYfOTLf1b9/GNPJ+fBvCB0hKwgCB0AjMHTz79QPfjw3eQ8mBeEjpAVZKjQ3dzc6HUA4HyGfg9kySB05YLQDcqh2m0anXWzq3bbxrRb22pv1zg1h93Gl7c9t7AzE9alzWn7undtptrvYKedm/HKtMdZNfxYdZs70i6pvpZDlieEjJOh/a9kELpyQehOiBOczS4Y7vdbPU0kYKy47cwvdNvK7aqRpo19LeJzqrzuq62014hCN16ZCF3pfZCQJWVo/ysZhK5cELoTsjahCxML3TkpWeiuL0MHlNL7ICFLytD+VzIIXbkgdCekn9Ad1CSznCa8k+WWFTHa76qtvRskkbthG7v8zgudFRWNKsevb9Yz9RHJOnGbap7eppq3PWJqXUKXLcdPV222dbJVy9fO1nlj61M/OlVt0JgnqbcTlidpC11+2UZbWWQzqUe3yX07qO35R/BjSO7lInVM9bUcsjwhZJwM7X8lg9CVC0J3QpzQJXHicdhpAdju1SivZEDm1QJYvxdPpunyZD27jlmuXkYXaec5yXDS4ebtgmVO2Wa9jW4xyQpdrhw7XddD18mt6yRVSaeeFZbr5pnX0bywPLec3qikIXQdy7pjWNc3bKt0Oc1902XoZYwc+tULjOxrqq/lkOUJIeNkaP8rGYSuXBC6E+JkoBYAFStQtVyYHPbBHSi/vJOrWAIiyUi8rsVmX+13RjJkewf173Crp2wzpLELUXJClyunuQ91YmlKCl1iXlye2yd3JzJer2vZaJ4VtpwY5vbNryd3QnW9y43UOdXXcsjyhJBxMrT/lQxCVy4I3QlxA3y30BmB0Mtk75YFj0RVYgFpv3blbNWE/cGWoWRCHsmanL/NYzkmdM1ykm2lM6/Qyeu9na/r1/HotruN3KPbTe82nCNS/1RfyyHLE0LGydD+VzIIXbkgdCckKSlNoXPytZcB30qDXz4tV3EZ9Xq1KBwRjVO26e8y2TLl7l6wW83E4hUkV05jurw2d7NOEzpXntkvu1zdANF63cuq9lASF7WFT7oc99rtm7S/Kdu0bd3W5UXOhVRfyyHLE0LGydD+VzIIXbkgdIPipChADfLJ76HzEqD+rQQgkhonbkJtazpO0vQHAvy/7XpNcdDbCOTq5G1mPswQxUpOQKOYbDn19LruTjhNOUHZjfZszpO1cx90CMt028l+KCJsj8b8ZDmJfZNp8gETPV3aXE8tM7Ivqb6WQ5YvN4l+qFGCrU5Kf4xnybhy789Ffw3om3YbmTqF0xN/mEWxy07WplNvb7pIe6f62RJB6MoFoSMrTXvAOz7ALTdDB5Ql9MH4DnXwCH2w/IwY94fCaHVo3C0emNZdfJvm+27TKUPo5P3Csx3PkSLHINXPlghCVy4IHVll9EAXjXJq4NwgdI4l9MG2rNSSPtYdsqHZ77b+q2yaEnVa5hS6+SN32GcV9JEixyDVz5YIQlcuCB1ZZ6LvkJMBUz7UcKU2pzJ0QFlCH0zJipvmJCD5/YFqTu77GutHnOnvQOzMYae/PsjXIVivLndTbZx0qvlSo655KaFL71M6x4Sua3/jx722Hhrzh4+b78pO1svdsZR19sH3Xya+wzHeXl33NuntlxypZ6qfLRGErlwQOkJWkKEDyhL64FGhs+8p1fPD95v66doK9PL1HT0nLqE02PWOxN/1cu9ljT6A5MpV06SsaLs95jmhy+1TJseErt52an+b226/3rk/grL1iu+a6vqohfR/dTlGrpPby23ft6vavlmx+Mj+p/rZEkHoygWhI2QFGTqgLKEPHhO68GtpHNGy8mlld1fKi0EsEf2FLvWezHy5RnrUa12h/vP8/gWE+9RMqo0k8r40M6lrfxv1kinB/PCxbb5erl0abej2Ue6O+unN7bW3H+6PHL/GbhUbqXOqny0RhK5cEDpCVpChA8oS+mBKVoxwBHeDGvNNjGRo2crdoUsKTkdEDsNl3KPGnJycKXTtfUont3z9QYOu/W3US+LbS+1vsMPH2jq+W+niHn3L2x3kdXN7ie37accfN5cUaZtUP1siCF25IHSErCBDB5Ql9MGmROg30KvXXgD8XSDz2n83ol0u/X2NHYKj1pPyWu+pk0eB0RdTS2w5djv163Eeubb2KRcvh3X99Hvd+uxvc9s6rq65O27NeqWFTo6dqUMg163tpbZv1m1tv/DI8Uz1syWC0JULQkfICjJ0QCm7DzpJaNL+HrrkdyN6+VCSocQjFBEneELrOxCtaMVyEtbFTW/Xz5cld5bsvPYHH9rzwvo4Cct932Mu9YcVzDob/cPPJl37G34fZC2Asn0lVA3JkiTr5dtMEYhw6jscU/vqP7wSbk+OX2L7JUf2IdXPlghCVy4IHSEryNABhT6YichE8w5dr6TvNpl0zSPtyIcx7D8XEoQOpgChI2QFQehGiNzpaj1a7RuE7tzoO3iqjeoPdCwnCB1MQZFCd8+99+kOAADjIH0q1ddyyDpkvISPE8NHj5KueaSOe89k+Ph3KZF6p/rZEkHoyqVIoQOAeZEBiBAyThA6mAKEDgBaIHSEjBeEDqYAoQOAFggdIeMFoYMpQOgAoAVCR8h4QehgChA6AGiB0BEyXhA6mAKEDgBaIHSEjBeEDqYAoQOAFggdIeMFoYMpQOgAoAVCR8h4QehgChA6AGiB0BEyXhA6mAKEDgBa8GstAOMx9JdaSgahKxeEDgAAAHqB0JULQgcAAAC9QOjKBaEDAACAXiB05YLQAQAAQC8QunJB6AAAAKAXCF25IHQAAADQC4SuXBA6AGhxc3OT/PoFABjO/bfvJPvZEkHoygWhA4AWMggRQsaJ9KdUP1siCF25IHQA0AKhI2S8IHQwBQgdALRA6AgZLwgdTAFCBwAtEDpCxgtCB1OA0AFAC4SOkPGC0MEUIHQA0AKhI2S8IHQwBQgdALRA6AgZLwgdTAFCBwAtxhe6Q7XbBN/NtdlVh/22fu2myaJuuns9MPtto7wgh93Gb2+7txOPxtZdrXB+eY12EFQ9d67Onm3Vu3qTJFFvx2Zb7U45UCuKtFOqny0RhK5cEDoAaCED0PjZV1stAZtaAA67atOcprLfnSZzJnY7GSF0EjaG0EmGl1evs4l22orskIImjpNlV8XD3h2/0gS0rEibpfrZEkHoygWhA4AWMgBdIv6OViAtThJqudlXu7Nu+YwtdN1Zk9C199XduYuFnMSRNkv1syWC0JULQgcALWQAukj8HTl3R0cJwdZKnhOw/S6SA3k0a9ZRArQNJM0/slUyodbZ2rtoKaE77GwZ8njQS4m7Yyio+vjyFKocIy+bauMeNR4tz87z9d1U24zl9BG66NFxuK9qlXCea7+N1DnYdl30QS1vljHr1HfT6nLUfgTl5NIUOneHLlwnuf8H1db+kW1dt9yx7dp3NbN+HR13My9V3pA6XSJmG9fDvT/39uR1A+YFoQOAFnLRvkzq92LpMVgJ3s6LlRlUo8etVgCN+NjlvDzUZcl8LRt6nl3OCVhURnv7eqC3yzqRqOum/ntCefW/06LgxCiJXlkSb9fUzZXn2kzJmXpd11u/0P/2sujrlJjny7FtH22jnXa9G++fy+y/Xk/vh5FLvY5d1tTF1qPXvmeOe1ie3s94O73qdKFIXVP9DGBMEDoAaCED0KXipUCNsAclbzLOOiHZKIPaGYvSccuacd4N5MHdPf26ORjHMhCX0X5dy8Jey6QM/mHdhpTn/h3ilgvjlqvFSsXK1iChS81rSZuJ3E3zd+H8vK5ttFPvay1VdX079t9Klb47aMsO2029ahzbrnqlj3tcXp0hdbpUZJupfgYwJggdALSQAehicQOpGpBF4HSczMggHQzI3YN+87VLfwHTsdveqgn7gy1TDfLySNYu0Lu8VtmZuOWmETqzT/p1a17XNtqJ98+u618f23/36HeTaKvmseyqV/q4J9tUZUidLhXZfqqfAYwJQgcALWQAulzcgBwOsk4OGnJm5c8M0nYZv1J6YG/KgJMYs54M4LJOYtt2+bYADCjP3/WxZTXeD+iSlI9OoXP7eoLQ2ddyV83V9VSha7Wdq7NbJ7P/sr9mm2Y/9L87j23XvmeOe2Pb8lrfeRtSpwtF2ijVzwDGBKEDgBYyAF0yRmjiAVnLgh/Q6+TeOF/LRLyekw69vB2knUDpN//7f7uyGgO6FoBaaoaW5z8wocpofyjCyUiAWi/3PXThdsIPZ4TLb3Y7Iz96npIU9++WZKkylcyEchPuW/QhEd82Lu16t9rCTkvtv0yTDzD4euipanru2Krk9r3+kISicb7U267rJxlSp0tE6pPqZwBjgtABQAsZgAgh4wShgylA6ACgBUJHyHhB6GAKEDoAaIHQETJeEDqYAoQOAFogdISMF4QOpgChA4AWCB0h4wWhgylA6ACgBUJHyHhB6GAKEDoAaIHQETJeEDqYAoQOAFogdISMF4QOpgChA4AWCB0h4wWhgylA6ACgBUJHyHhB6GAKEDoAaIHQETJeEDqYAoQOAFrcc+99ehACgPOR/pTqZwBjgtABAAAALByEDgAAAGDhIHQAAAAACwehAwAAAFg4CB0AAADAwkHoAAAAABYOQgcAAACwcBA6AAAAgIWD0AEAAAAsHIQOAAAAYOEgdAAAAAALB6EDAAAAWDgIHQAAAMDCQegAAAAAFg5CBwAAALBwEDoAAACAhYPQAQAAACwchA4AAABg4SB0AAAAAAsHoQMAAABYOAgdAAAAwMJB6AAAAAAWDkIHAAAAsHAQOgAAAICF8x//03+u/n8/YB0hQMFbrAAAAABJRU5ErkJggg==;" vertex="1" parent="1">
          <mxGeometry x="1450" y="290" width="1098" height="851.47" as="geometry" />
        </mxCell>
        <mxCell id="S9xhGBCpftyQh5QA76QY-83" style="edgeStyle=orthogonalEdgeStyle;rounded=1;orthogonalLoop=1;jettySize=auto;html=1;exitX=0.5;exitY=0;exitDx=0;exitDy=0;entryX=0.5;entryY=1;entryDx=0;entryDy=0;fontFamily=Helvetica;fontSource=https%3A%2F%2Ffonts.googleapis.com%2Fcss%3Ffamily%3DInter;fontSize=11;startArrow=none;startFill=0;endArrow=none;endFill=0;strokeColor=#AFABAB;strokeWidth=4;fontStyle=1;" edge="1" parent="1" source="S9xhGBCpftyQh5QA76QY-58" target="2">
          <mxGeometry relative="1" as="geometry">
            <Array as="points">
              <mxPoint x="490" y="360" />
              <mxPoint x="920" y="360" />
            </Array>
          </mxGeometry>
        </mxCell>
        <mxCell id="S9xhGBCpftyQh5QA76QY-58" value="Senior Vice Presidents" style="rounded=1;fillColor=#2B2B2B;strokeColor=none;shadow=1;gradientColor=none;fontStyle=1;fontColor=#FFFFFF;fontSize=16;fontFamily=Inter;fontSource=https%3A%2F%2Ffonts.googleapis.com%2Fcss%3Ffamily%3DInter;" vertex="1" parent="1">
          <mxGeometry x="390" y="380" width="200" height="60" as="geometry" />
        </mxCell>
        <mxCell id="S9xhGBCpftyQh5QA76QY-81" style="edgeStyle=orthogonalEdgeStyle;rounded=1;orthogonalLoop=1;jettySize=auto;html=1;exitX=0.5;exitY=0;exitDx=0;exitDy=0;entryX=0.5;entryY=1;entryDx=0;entryDy=0;fontFamily=Helvetica;fontSource=https%3A%2F%2Ffonts.googleapis.com%2Fcss%3Ffamily%3DInter;fontSize=11;endArrow=none;strokeColor=#AFABAB;strokeWidth=4;endFill=0;fontStyle=1;startArrow=none;startFill=0;" edge="1" parent="1" source="S9xhGBCpftyQh5QA76QY-59" target="2">
          <mxGeometry relative="1" as="geometry">
            <Array as="points">
              <mxPoint x="750" y="360" />
              <mxPoint x="920" y="360" />
            </Array>
          </mxGeometry>
        </mxCell>
        <mxCell id="S9xhGBCpftyQh5QA76QY-59" value="Chief Design Officer" style="rounded=1;fillColor=#2B2B2B;strokeColor=none;shadow=1;gradientColor=none;fontStyle=1;fontColor=#FFFFFF;fontSize=16;fontFamily=Inter;fontSource=https%3A%2F%2Ffonts.googleapis.com%2Fcss%3Ffamily%3DInter;" vertex="1" parent="1">
          <mxGeometry x="650" y="380" width="200" height="60" as="geometry" />
        </mxCell>
        <mxCell id="S9xhGBCpftyQh5QA76QY-60" value="Chief Operating Officer" style="rounded=1;fillColor=#2B2B2B;strokeColor=none;shadow=1;gradientColor=none;fontStyle=1;fontColor=#FFFFFF;fontSize=16;fontFamily=Inter;fontSource=https%3A%2F%2Ffonts.googleapis.com%2Fcss%3Ffamily%3DInter;" vertex="1" parent="1">
          <mxGeometry x="910" y="380" width="200" height="60" as="geometry" />
        </mxCell>
        <mxCell id="S9xhGBCpftyQh5QA76QY-82" style="edgeStyle=orthogonalEdgeStyle;rounded=1;orthogonalLoop=1;jettySize=auto;html=1;exitX=0.5;exitY=0;exitDx=0;exitDy=0;entryX=0.5;entryY=1;entryDx=0;entryDy=0;fontFamily=Helvetica;fontSource=https%3A%2F%2Ffonts.googleapis.com%2Fcss%3Ffamily%3DInter;fontSize=11;startArrow=none;startFill=0;endArrow=none;endFill=0;strokeColor=#AFABAB;strokeWidth=4;fontStyle=1;" edge="1" parent="1" source="S9xhGBCpftyQh5QA76QY-61" target="2">
          <mxGeometry relative="1" as="geometry">
            <Array as="points">
              <mxPoint x="1260" y="360" />
              <mxPoint x="920" y="360" />
            </Array>
          </mxGeometry>
        </mxCell>
        <mxCell id="S9xhGBCpftyQh5QA76QY-95" style="edgeStyle=orthogonalEdgeStyle;rounded=1;orthogonalLoop=1;jettySize=auto;html=1;exitX=0.5;exitY=1;exitDx=0;exitDy=0;entryX=1;entryY=0.5;entryDx=0;entryDy=0;fontFamily=Helvetica;fontSource=https%3A%2F%2Ffonts.googleapis.com%2Fcss%3Ffamily%3DInter;fontSize=11;startArrow=none;startFill=0;endArrow=none;endFill=0;strokeColor=#AFABAB;strokeWidth=4;fontStyle=1;" edge="1" parent="1" source="S9xhGBCpftyQh5QA76QY-61" target="S9xhGBCpftyQh5QA76QY-71">
          <mxGeometry relative="1" as="geometry" />
        </mxCell>
        <mxCell id="S9xhGBCpftyQh5QA76QY-96" style="edgeStyle=orthogonalEdgeStyle;rounded=1;orthogonalLoop=1;jettySize=auto;html=1;exitX=0.5;exitY=1;exitDx=0;exitDy=0;entryX=1;entryY=0.5;entryDx=0;entryDy=0;fontFamily=Helvetica;fontSource=https%3A%2F%2Ffonts.googleapis.com%2Fcss%3Ffamily%3DInter;fontSize=11;startArrow=none;startFill=0;endArrow=none;endFill=0;strokeColor=#AFABAB;strokeWidth=4;fontStyle=1;" edge="1" parent="1" source="S9xhGBCpftyQh5QA76QY-61" target="S9xhGBCpftyQh5QA76QY-70">
          <mxGeometry relative="1" as="geometry" />
        </mxCell>
        <mxCell id="S9xhGBCpftyQh5QA76QY-61" value="Vice Presidents" style="rounded=1;fillColor=#2B2B2B;strokeColor=none;shadow=1;gradientColor=none;fontStyle=1;fontColor=#FFFFFF;fontSize=16;fontFamily=Inter;fontSource=https%3A%2F%2Ffonts.googleapis.com%2Fcss%3Ffamily%3DInter;" vertex="1" parent="1">
          <mxGeometry x="1160" y="380" width="200" height="60" as="geometry" />
        </mxCell>
        <mxCell id="S9xhGBCpftyQh5QA76QY-102" style="edgeStyle=orthogonalEdgeStyle;rounded=1;orthogonalLoop=1;jettySize=auto;html=1;exitX=1;exitY=0.5;exitDx=0;exitDy=0;entryX=0.5;entryY=1;entryDx=0;entryDy=0;fontFamily=Helvetica;fontSource=https%3A%2F%2Ffonts.googleapis.com%2Fcss%3Ffamily%3DInter;fontSize=11;startArrow=none;startFill=0;endArrow=none;endFill=0;strokeColor=#AFABAB;strokeWidth=4;fontStyle=1;" edge="1" parent="1" source="S9xhGBCpftyQh5QA76QY-65" target="S9xhGBCpftyQh5QA76QY-61">
          <mxGeometry relative="1" as="geometry" />
        </mxCell>
        <mxCell id="S9xhGBCpftyQh5QA76QY-65" value="User Interface Design" style="rounded=1;fillColor=#191919;strokeColor=none;shadow=1;gradientColor=none;fontStyle=1;fontColor=#FFFFFF;fontSize=16;fontFamily=Inter;fontSource=https%3A%2F%2Ffonts.googleapis.com%2Fcss%3Ffamily%3DInter;" vertex="1" parent="1">
          <mxGeometry x="764" y="480" width="460" height="60" as="geometry" />
        </mxCell>
        <mxCell id="S9xhGBCpftyQh5QA76QY-100" style="edgeStyle=orthogonalEdgeStyle;rounded=1;orthogonalLoop=1;jettySize=auto;html=1;exitX=1;exitY=0.5;exitDx=0;exitDy=0;entryX=0.5;entryY=1;entryDx=0;entryDy=0;fontFamily=Helvetica;fontSource=https%3A%2F%2Ffonts.googleapis.com%2Fcss%3Ffamily%3DInter;fontSize=11;startArrow=none;startFill=0;endArrow=none;endFill=0;strokeColor=#AFABAB;strokeWidth=4;fontStyle=1;" edge="1" parent="1" source="S9xhGBCpftyQh5QA76QY-66" target="S9xhGBCpftyQh5QA76QY-61">
          <mxGeometry relative="1" as="geometry" />
        </mxCell>
        <mxCell id="S9xhGBCpftyQh5QA76QY-66" value="Communications" style="rounded=1;fillColor=#191919;strokeColor=none;shadow=1;gradientColor=none;fontStyle=1;fontColor=#FFFFFF;fontSize=16;fontFamily=Inter;fontSource=https%3A%2F%2Ffonts.googleapis.com%2Fcss%3Ffamily%3DInter;" vertex="1" parent="1">
          <mxGeometry x="764" y="570" width="460" height="60" as="geometry" />
        </mxCell>
        <mxCell id="S9xhGBCpftyQh5QA76QY-99" style="edgeStyle=orthogonalEdgeStyle;rounded=1;orthogonalLoop=1;jettySize=auto;html=1;exitX=1;exitY=0.5;exitDx=0;exitDy=0;entryX=0.5;entryY=1;entryDx=0;entryDy=0;fontFamily=Helvetica;fontSource=https%3A%2F%2Ffonts.googleapis.com%2Fcss%3Ffamily%3DInter;fontSize=11;startArrow=none;startFill=0;endArrow=none;endFill=0;strokeColor=#AFABAB;strokeWidth=4;fontStyle=1;" edge="1" parent="1" source="S9xhGBCpftyQh5QA76QY-67" target="S9xhGBCpftyQh5QA76QY-61">
          <mxGeometry relative="1" as="geometry" />
        </mxCell>
        <mxCell id="S9xhGBCpftyQh5QA76QY-67" value="Industrial Designs" style="rounded=1;fillColor=#191919;strokeColor=none;shadow=1;gradientColor=none;fontStyle=1;fontColor=#FFFFFF;fontSize=16;fontFamily=Inter;fontSource=https%3A%2F%2Ffonts.googleapis.com%2Fcss%3Ffamily%3DInter;" vertex="1" parent="1">
          <mxGeometry x="764" y="660" width="460" height="60" as="geometry" />
        </mxCell>
        <mxCell id="S9xhGBCpftyQh5QA76QY-98" style="edgeStyle=orthogonalEdgeStyle;rounded=1;orthogonalLoop=1;jettySize=auto;html=1;exitX=1;exitY=0.5;exitDx=0;exitDy=0;entryX=0.5;entryY=1;entryDx=0;entryDy=0;fontFamily=Helvetica;fontSource=https%3A%2F%2Ffonts.googleapis.com%2Fcss%3Ffamily%3DInter;fontSize=11;startArrow=none;startFill=0;endArrow=none;endFill=0;strokeColor=#AFABAB;strokeWidth=4;fontStyle=1;" edge="1" parent="1" source="S9xhGBCpftyQh5QA76QY-68" target="S9xhGBCpftyQh5QA76QY-61">
          <mxGeometry relative="1" as="geometry" />
        </mxCell>
        <mxCell id="S9xhGBCpftyQh5QA76QY-68" value="Environment, Policy and Social Initiatives" style="rounded=1;fillColor=#191919;strokeColor=none;shadow=1;gradientColor=none;fontStyle=1;fontColor=#FFFFFF;fontSize=16;fontFamily=Inter;fontSource=https%3A%2F%2Ffonts.googleapis.com%2Fcss%3Ffamily%3DInter;" vertex="1" parent="1">
          <mxGeometry x="764" y="750" width="460" height="60" as="geometry" />
        </mxCell>
        <mxCell id="S9xhGBCpftyQh5QA76QY-97" style="edgeStyle=orthogonalEdgeStyle;rounded=1;orthogonalLoop=1;jettySize=auto;html=1;exitX=1;exitY=0.5;exitDx=0;exitDy=0;entryX=0.5;entryY=1;entryDx=0;entryDy=0;fontFamily=Helvetica;fontSource=https%3A%2F%2Ffonts.googleapis.com%2Fcss%3Ffamily%3DInter;fontSize=11;startArrow=none;startFill=0;endArrow=none;endFill=0;strokeColor=#AFABAB;strokeWidth=4;fontStyle=1;" edge="1" parent="1" source="S9xhGBCpftyQh5QA76QY-69" target="S9xhGBCpftyQh5QA76QY-61">
          <mxGeometry relative="1" as="geometry" />
        </mxCell>
        <mxCell id="S9xhGBCpftyQh5QA76QY-69" value="Marketing Communications" style="rounded=1;fillColor=#191919;strokeColor=none;shadow=1;gradientColor=none;fontStyle=1;fontColor=#FFFFFF;fontSize=16;fontFamily=Inter;fontSource=https%3A%2F%2Ffonts.googleapis.com%2Fcss%3Ffamily%3DInter;" vertex="1" parent="1">
          <mxGeometry x="764" y="840" width="460" height="60" as="geometry" />
        </mxCell>
        <mxCell id="S9xhGBCpftyQh5QA76QY-70" value="Dean, Apple University" style="rounded=1;fillColor=#191919;strokeColor=none;shadow=1;gradientColor=none;fontStyle=1;fontColor=#FFFFFF;fontSize=16;fontFamily=Inter;fontSource=https%3A%2F%2Ffonts.googleapis.com%2Fcss%3Ffamily%3DInter;" vertex="1" parent="1">
          <mxGeometry x="764" y="930" width="460" height="60" as="geometry" />
        </mxCell>
        <mxCell id="S9xhGBCpftyQh5QA76QY-71" value="Worldwide Human Resources" style="rounded=1;fillColor=#191919;strokeColor=none;shadow=1;gradientColor=none;fontStyle=1;fontColor=#FFFFFF;fontSize=16;fontFamily=Inter;fontSource=https%3A%2F%2Ffonts.googleapis.com%2Fcss%3Ffamily%3DInter;" vertex="1" parent="1">
          <mxGeometry x="764" y="1020" width="460" height="60" as="geometry" />
        </mxCell>
        <mxCell id="S9xhGBCpftyQh5QA76QY-93" style="edgeStyle=orthogonalEdgeStyle;rounded=1;orthogonalLoop=1;jettySize=auto;html=1;exitX=0;exitY=0.5;exitDx=0;exitDy=0;entryX=0;entryY=0.5;entryDx=0;entryDy=0;fontFamily=Helvetica;fontSource=https%3A%2F%2Ffonts.googleapis.com%2Fcss%3Ffamily%3DInter;fontSize=11;startArrow=none;startFill=0;endArrow=none;endFill=0;strokeColor=#AFABAB;strokeWidth=4;fontStyle=1;" edge="1" parent="1" source="S9xhGBCpftyQh5QA76QY-73" target="S9xhGBCpftyQh5QA76QY-58">
          <mxGeometry relative="1" as="geometry" />
        </mxCell>
        <mxCell id="S9xhGBCpftyQh5QA76QY-73" value="General Counsel" style="rounded=1;fillColor=#191919;strokeColor=none;shadow=1;gradientColor=none;fontStyle=1;fontColor=#FFFFFF;fontSize=16;fontFamily=Inter;fontSource=https%3A%2F%2Ffonts.googleapis.com%2Fcss%3Ffamily%3DInter;" vertex="1" parent="1">
          <mxGeometry x="274" y="1020" width="460" height="60" as="geometry" />
        </mxCell>
        <mxCell id="S9xhGBCpftyQh5QA76QY-104" style="edgeStyle=orthogonalEdgeStyle;rounded=1;orthogonalLoop=1;jettySize=auto;html=1;exitX=0;exitY=0.5;exitDx=0;exitDy=0;entryX=0;entryY=0.5;entryDx=0;entryDy=0;fontFamily=Helvetica;fontSource=https%3A%2F%2Ffonts.googleapis.com%2Fcss%3Ffamily%3DInter;fontSize=11;startArrow=none;startFill=0;endArrow=none;endFill=0;strokeColor=#AFABAB;strokeWidth=4;fontStyle=1;" edge="1" parent="1" source="S9xhGBCpftyQh5QA76QY-74" target="S9xhGBCpftyQh5QA76QY-58">
          <mxGeometry relative="1" as="geometry" />
        </mxCell>
        <mxCell id="S9xhGBCpftyQh5QA76QY-74" value="Retail" style="rounded=1;fillColor=#191919;strokeColor=none;shadow=1;gradientColor=none;fontStyle=1;fontColor=#FFFFFF;fontSize=16;fontFamily=Inter;fontSource=https%3A%2F%2Ffonts.googleapis.com%2Fcss%3Ffamily%3DInter;" vertex="1" parent="1">
          <mxGeometry x="274" y="480" width="460" height="60" as="geometry" />
        </mxCell>
        <mxCell id="S9xhGBCpftyQh5QA76QY-103" style="edgeStyle=orthogonalEdgeStyle;rounded=1;orthogonalLoop=1;jettySize=auto;html=1;exitX=0;exitY=0.5;exitDx=0;exitDy=0;entryX=0;entryY=0.5;entryDx=0;entryDy=0;fontFamily=Helvetica;fontSource=https%3A%2F%2Ffonts.googleapis.com%2Fcss%3Ffamily%3DInter;fontSize=11;startArrow=none;startFill=0;endArrow=none;endFill=0;strokeColor=#23445D;strokeWidth=4;fontStyle=1;" edge="1" parent="1" source="S9xhGBCpftyQh5QA76QY-75" target="S9xhGBCpftyQh5QA76QY-58">
          <mxGeometry relative="1" as="geometry" />
        </mxCell>
        <mxCell id="S9xhGBCpftyQh5QA76QY-75" value="Software and Services" style="rounded=1;fillColor=#191919;strokeColor=none;shadow=1;gradientColor=none;fontStyle=1;fontColor=#FFFFFF;fontSize=16;fontFamily=Inter;fontSource=https%3A%2F%2Ffonts.googleapis.com%2Fcss%3Ffamily%3DInter;" vertex="1" parent="1">
          <mxGeometry x="274" y="570" width="460" height="60" as="geometry" />
        </mxCell>
        <mxCell id="S9xhGBCpftyQh5QA76QY-88" style="edgeStyle=orthogonalEdgeStyle;rounded=1;orthogonalLoop=1;jettySize=auto;html=1;exitX=0;exitY=0.5;exitDx=0;exitDy=0;entryX=0;entryY=0.5;entryDx=0;entryDy=0;fontFamily=Helvetica;fontSource=https%3A%2F%2Ffonts.googleapis.com%2Fcss%3Ffamily%3DInter;fontSize=11;startArrow=none;startFill=0;endArrow=none;endFill=0;strokeColor=#AFABAB;strokeWidth=4;fontStyle=1;" edge="1" parent="1" source="S9xhGBCpftyQh5QA76QY-76" target="S9xhGBCpftyQh5QA76QY-58">
          <mxGeometry relative="1" as="geometry" />
        </mxCell>
        <mxCell id="S9xhGBCpftyQh5QA76QY-76" value="Software Engineering" style="rounded=1;fillColor=#191919;strokeColor=none;shadow=1;gradientColor=none;fontStyle=1;fontColor=#FFFFFF;fontSize=16;fontFamily=Inter;fontSource=https%3A%2F%2Ffonts.googleapis.com%2Fcss%3Ffamily%3DInter;" vertex="1" parent="1">
          <mxGeometry x="274" y="660" width="460" height="60" as="geometry" />
        </mxCell>
        <mxCell id="S9xhGBCpftyQh5QA76QY-89" style="edgeStyle=orthogonalEdgeStyle;rounded=1;orthogonalLoop=1;jettySize=auto;html=1;exitX=0;exitY=0.5;exitDx=0;exitDy=0;entryX=0;entryY=0.5;entryDx=0;entryDy=0;fontFamily=Helvetica;fontSource=https%3A%2F%2Ffonts.googleapis.com%2Fcss%3Ffamily%3DInter;fontSize=11;startArrow=none;startFill=0;endArrow=none;endFill=0;strokeColor=#AFABAB;strokeWidth=4;fontStyle=1;" edge="1" parent="1" source="S9xhGBCpftyQh5QA76QY-77" target="S9xhGBCpftyQh5QA76QY-58">
          <mxGeometry relative="1" as="geometry" />
        </mxCell>
        <mxCell id="S9xhGBCpftyQh5QA76QY-77" value="Chief Financial Officer" style="rounded=1;fillColor=#191919;strokeColor=none;shadow=1;gradientColor=none;fontStyle=1;fontColor=#FFFFFF;fontSize=16;fontFamily=Inter;fontSource=https%3A%2F%2Ffonts.googleapis.com%2Fcss%3Ffamily%3DInter;" vertex="1" parent="1">
          <mxGeometry x="274" y="750" width="460" height="60" as="geometry" />
        </mxCell>
        <mxCell id="S9xhGBCpftyQh5QA76QY-90" style="edgeStyle=orthogonalEdgeStyle;rounded=1;orthogonalLoop=1;jettySize=auto;html=1;exitX=0;exitY=0.5;exitDx=0;exitDy=0;entryX=0;entryY=0.5;entryDx=0;entryDy=0;fontFamily=Helvetica;fontSource=https%3A%2F%2Ffonts.googleapis.com%2Fcss%3Ffamily%3DInter;fontSize=11;startArrow=none;startFill=0;endArrow=none;endFill=0;strokeColor=#AFABAB;strokeWidth=4;fontStyle=1;" edge="1" parent="1" source="S9xhGBCpftyQh5QA76QY-78" target="S9xhGBCpftyQh5QA76QY-58">
          <mxGeometry relative="1" as="geometry" />
        </mxCell>
        <mxCell id="S9xhGBCpftyQh5QA76QY-78" value="Hardware Engineering" style="rounded=1;fillColor=#191919;strokeColor=none;shadow=1;gradientColor=none;fontStyle=1;fontColor=#FFFFFF;fontSize=16;fontFamily=Inter;fontSource=https%3A%2F%2Ffonts.googleapis.com%2Fcss%3Ffamily%3DInter;" vertex="1" parent="1">
          <mxGeometry x="274" y="840" width="460" height="60" as="geometry" />
        </mxCell>
        <mxCell id="S9xhGBCpftyQh5QA76QY-92" style="edgeStyle=orthogonalEdgeStyle;rounded=1;orthogonalLoop=1;jettySize=auto;html=1;exitX=0;exitY=0.5;exitDx=0;exitDy=0;entryX=0;entryY=0.5;entryDx=0;entryDy=0;fontFamily=Helvetica;fontSource=https%3A%2F%2Ffonts.googleapis.com%2Fcss%3Ffamily%3DInter;fontSize=11;startArrow=none;startFill=0;endArrow=none;endFill=0;strokeColor=#AFABAB;strokeWidth=4;fontStyle=1;" edge="1" parent="1" source="S9xhGBCpftyQh5QA76QY-79" target="S9xhGBCpftyQh5QA76QY-58">
          <mxGeometry relative="1" as="geometry" />
        </mxCell>
        <mxCell id="S9xhGBCpftyQh5QA76QY-79" value="Worldwide Marketing" style="rounded=1;fillColor=#191919;strokeColor=none;shadow=1;gradientColor=none;fontStyle=1;fontColor=#FFFFFF;fontSize=16;fontFamily=Inter;fontSource=https%3A%2F%2Ffonts.googleapis.com%2Fcss%3Ffamily%3DInter;" vertex="1" parent="1">
          <mxGeometry x="274" y="930" width="460" height="60" as="geometry" />
        </mxCell>
        <mxCell id="S9xhGBCpftyQh5QA76QY-94" style="edgeStyle=orthogonalEdgeStyle;rounded=1;orthogonalLoop=1;jettySize=auto;html=1;exitX=0;exitY=0.5;exitDx=0;exitDy=0;entryX=0;entryY=0.5;entryDx=0;entryDy=0;fontFamily=Helvetica;fontSource=https%3A%2F%2Ffonts.googleapis.com%2Fcss%3Ffamily%3DInter;fontSize=11;startArrow=none;startFill=0;endArrow=none;endFill=0;strokeColor=#AFABAB;strokeWidth=4;fontStyle=1;" edge="1" parent="1" source="S9xhGBCpftyQh5QA76QY-80" target="S9xhGBCpftyQh5QA76QY-58">
          <mxGeometry relative="1" as="geometry" />
        </mxCell>
        <mxCell id="S9xhGBCpftyQh5QA76QY-80" value="Hardware Technologies" style="rounded=1;fillColor=#191919;strokeColor=none;shadow=1;gradientColor=none;fontStyle=1;fontColor=#FFFFFF;fontSize=16;fontFamily=Inter;fontSource=https%3A%2F%2Ffonts.googleapis.com%2Fcss%3Ffamily%3DInter;" vertex="1" parent="1">
          <mxGeometry x="274" y="1110" width="460" height="60" as="geometry" />
        </mxCell>
      </root>
    </mxGraphModel>
  </diagram>
</mxfile>
